<svg id="Layer_1" data-name="Layer 1" xmlns="http://www.w3.org/2000/svg" viewBox="0 0 248.21 36.06"><defs><style>.cls-1{fill:#3be07e;}.cls-2{fill:#3a3a3a;}</style></defs><g id="Logo_with_Text-01" data-name="Logo with Text-01"><path id="Path_107" data-name="Path 107" class="cls-1" d="M439.41,54l21.5,34.9-28.12-9.09,19.52,3.8Z" transform="translate(-414.76 -53.97)"/><path id="Path_108" data-name="Path 108" class="cls-2" d="M439.41,54l12.9,29.61-19.52-3.8h15.88Z" transform="translate(-414.76 -53.97)"/><path id="Path_109" data-name="Path 109" class="cls-1" d="M438.41,54,414.76,89.54l44.66.49L422.2,84.74Z" transform="translate(-414.76 -53.97)"/><path id="Path_110" data-name="Path 110" class="cls-2" d="M438.41,54,422.2,84.74,459.42,90,429,80.6Z" transform="translate(-414.76 -53.97)"/><path id="Path_111" data-name="Path 111" class="cls-2" d="M609.63,84.74V59.43h28.29v4.46H615.09v16h23v4.8Z" transform="translate(-414.76 -53.97)"/><g id="Group_1" data-name="Group 1"><path id="Path_112" data-name="Path 112" class="cls-2" d="M641.06,84.41V81.26l2-.33v-17l-2-.33v-4h10.59a11.44,11.44,0,0,1,10.92,8.94,15.07,15.07,0,0,1-.33,8.1,11.6,11.6,0,0,1-7.61,7.61l-1.33.33H641.06m6.45-4.63a7.79,7.79,0,0,0,8.94-3.31,7.43,7.43,0,0,0-.67-9.59,7.1,7.1,0,0,0-8.27-2.48Z" transform="translate(-414.76 -53.97)"/><path id="Path_113" data-name="Path 113" class="cls-2" d="M586,59.76h13.24a5.29,5.29,0,0,1,5.62,4.94v0c.17.33.17.5,0,.66a13.05,13.05,0,0,1,0,3.64,5.78,5.78,0,0,1-4,6.62l5.63,8.6h-6l-5.79-8.44h-4.3v8.77H586ZM590.77,72h6a4.14,4.14,0,0,0,.49-8.27h-6.45Z" transform="translate(-414.76 -53.97)"/><path id="Path_114" data-name="Path 114" class="cls-2" d="M561,84.41V60.09h4.8v9.43h.33l9.1-10.09,6.62.33-9.93,11.58,9.6,12.9h-6.29l-7-9.1-2.48,2.48v6.62Z" transform="translate(-414.76 -53.97)"/><rect id="Rectangle_51" data-name="Rectangle 51" class="cls-2" x="204.3" y="12.74" width="21.67" height="3.21"/><path id="Path_115" data-name="Path 115" class="cls-1" d="M523.61,72.17a15.36,15.36,0,0,1,3.47-10.59,13.07,13.07,0,0,1,18.48-.38l.22.21c.16,0,.16,0,.16.17a15.14,15.14,0,0,1,3.47,10.59,16.14,16.14,0,0,1-3.47,10.42,11.26,11.26,0,0,1-9.43,3.8,11.44,11.44,0,0,1-9.43-3.8,15.24,15.24,0,0,1-3.47-10.42m5.46,0a11.42,11.42,0,0,0,2,6.94,7.28,7.28,0,0,0,10.28.65,7.86,7.86,0,0,0,.64-.65,13.11,13.11,0,0,0,2-6.94,13.71,13.71,0,0,0-2-7.28,6.61,6.61,0,0,0-5.62-2.48,6.43,6.43,0,0,0-5.46,2.48,12.18,12.18,0,0,0-1.82,7.28" transform="translate(-414.76 -53.97)"/><path id="Path_116" data-name="Path 116" class="cls-1" d="M492.67,85.23h-3.8L476.79,65.38V85.23h-4.3V58.77h4.3Z" transform="translate(-414.76 -53.97)"/><rect id="Rectangle_52" data-name="Rectangle 52" class="cls-1" x="81.72" y="4.96" width="22.5" height="4.37"/><rect id="Rectangle_53" data-name="Rectangle 53" class="cls-1" x="81.72" y="15.88" width="22.5" height="4.37"/><rect id="Rectangle_54" data-name="Rectangle 54" class="cls-1" x="81.72" y="26.63" width="22.5" height="4.37"/></g></g></svg>